HIERARCHY
ROOT Hips
{
	OFFSET 0.00000 0.00000 0.00000
	CHANNELS 6 Xposition Yposition Zposition Zrotation Yrotation Xrotation 
	JOINT LHipJoint
	{
		OFFSET 0 0 0
		CHANNELS 3 Zrotation Yrotation Xrotation
		JOINT LeftHip
		{
			OFFSET 1.38280 -1.96574 0.54427
			CHANNELS 3 Zrotation Yrotation Xrotation
			JOINT LeftKnee
			{
				OFFSET 2.72096 -7.47578 0.00000
				CHANNELS 3 Zrotation Yrotation Xrotation
				JOINT LeftAnkle
				{
					OFFSET 2.73041 -7.50176 0.00000
					CHANNELS 3 Zrotation Yrotation Xrotation
					JOINT LeftToe
					{
						OFFSET 0.16150 -0.44371 2.18031
						CHANNELS 3 Zrotation Yrotation Xrotation
						End Site
						{
							OFFSET 0.00000 -0.00000 1.12127
						}
					}
				}
			}
		}
	}
	JOINT RHipJoint
	{
		OFFSET 0 0 0
		CHANNELS 3 Zrotation Yrotation Xrotation
		JOINT RightHip
		{
			OFFSET -1.57224 -1.96575 0.54427
			CHANNELS 3 Zrotation Yrotation Xrotation
			JOINT RightKnee
			{
				OFFSET -2.95935 -8.13076 0.00000
				CHANNELS 3 Zrotation Yrotation Xrotation
				JOINT RightAnkle
				{
					OFFSET -2.52345 -6.93311 0.00000
					CHANNELS 3 Zrotation Yrotation Xrotation
					JOINT RightToe
					{
						OFFSET -0.04475 -0.10171 1.86688
						CHANNELS 3 Zrotation Yrotation Xrotation
						End Site
						{
							OFFSET -0.00000 -0.00000 0.95157
						}
					}
				}
			}
		}
	}
	JOINT lowerback
	{
		OFFSET 0 0 0
		CHANNELS 3 Zrotation Yrotation Xrotation
		JOINT Chest
		{
			OFFSET 0.00669 2.07367 0.09104
			CHANNELS 3 Zrotation Yrotation Xrotation
			JOINT Chest2
			{
				OFFSET -0.00664 2.06198 -0.04732
				CHANNELS 3 Zrotation Yrotation Xrotation
				JOINT lowerneck
				{
					OFFSET 0 0 0
					CHANNELS 3 Zrotation Yrotation Xrotation
					JOINT Neck
					{
						OFFSET -0.00021 1.49948 0.16345
						CHANNELS 3 Zrotation Yrotation Xrotation
						JOINT Head
						{
							OFFSET 0.06080 1.50567 -0.26702
							CHANNELS 3 Zrotation Yrotation Xrotation
							End Site
							{
								OFFSET 0.01726 1.56470 -0.11854
							}
						}
					}
				}
				JOINT LeftCollar
				{
					OFFSET 0 0 0
					CHANNELS 3 Zrotation Yrotation Xrotation
					JOINT LeftShoulder
					{
						OFFSET 3.14993 0.82932 -0.22488
CHANNELS 3 Zrotation Xrotation Yrotation
						JOINT LeftElbow
						{
OFFSET 0 -5.682360 -0.000000
CHANNELS 3 Zrotation Xrotation Yrotation
							JOINT LeftWrist
							{
OFFSET 0 -3.171120 0.000000
CHANNELS 3 Zrotation Xrotation Yrotation
								JOINT lhand
								{
									OFFSET 0 0 0
CHANNELS 3 Zrotation Xrotation Yrotation
									JOINT LFingers
									{
OFFSET 0 -0.632690 0.000000
CHANNELS 3 Zrotation Xrotation Yrotation
										End Site
										{
OFFSET 0 -0.510090 0.000000
										}
									}
								}
								JOINT LThumb
								{
OFFSET 0 0.000000 0.000000
CHANNELS 3 Zrotation Xrotation Yrotation
									End Site
									{
OFFSET 0 -0.517880 0.517880
									}
								}
							}
						}
					}
				}
				JOINT RightCollar
				{
					OFFSET 0 0 0
					CHANNELS 3 Zrotation Yrotation Xrotation
					JOINT RightShoulder
					{
						OFFSET -3.10571 0.91279 -0.33334
CHANNELS 3 Zrotation Xrotation Yrotation
						JOINT RightElbow
						{
OFFSET 0 -5.871200 -0.000000
CHANNELS 3 Zrotation Xrotation Yrotation
							JOINT RightWrist
							{
OFFSET 0 -3.375890 0.000000
CHANNELS 3 Zrotation Xrotation Yrotation
								JOINT rhand
								{
									OFFSET 0 0 0
CHANNELS 3 Zrotation Xrotation Yrotation
									JOINT RFingers
									{
OFFSET 0 -0.603260 0.000000
CHANNELS 3 Zrotation Xrotation Yrotation
										End Site
										{
OFFSET 0 -0.486360 0.000000
										}
									}
								}
								JOINT RThumb
								{
OFFSET 0 0.000000 0.000000
CHANNELS 3 Zrotation Xrotation Yrotation
									End Site
									{
OFFSET 0 -0.493790 0.493790
									}
								}
							}
						}
					}
				}
			}
		}
	}
}
MOTION
Frames: 5
Frame Time: 0.008333333333333333
7.633000 17.923700 -3.992000 172.307000 -76.358600 -160.366000 0.000000 0.000000 0.000000 -13.841200 -12.125200 -29.933700 7.075400 15.395100 49.159000 2.083000 3.280000 -28.597700 0.892700 -6.022300 -16.849200 0.000000 0.000000 0.000000 16.546900 16.596800 -22.728100 -4.779400 -13.131000 39.860700 0.622400 14.441300 9.885200 -6.126500 -14.549900 45.487500 -2.121000 -0.306600 -8.336500 2.099500 -0.325800 1.662600 3.353900 -0.289300 6.454200 0.693200 3.085900 -19.702600 -2.903900 4.679300 23.289900 -0.478300 1.735100 10.868500 0.000000 0.000000 0.000000 3.833900 -0.493500 -34.024800 20.039200 -30.689500 5.551300 16.980900 -7.817800 -34.268500 0.000000 0.000000 0.000000 -7.125000 0.000000 0.000000 -20.137200 64.361300 9.628600 0.000000 0.000000 0.000000 -2.215600 -3.799500 0.414600 -17.410400 -27.395700 -4.274500 -20.718500 12.059700 -28.733400 0.000000 0.000000 0.000000 7.125000 0.000000 -0.000000 5.788900 -0.260000 5.845000
7.229556 17.956250 -4.446534 151.455082 -83.330848 -139.268529 0.000000 0.000000 0.000000 -16.285590 -13.604363 -39.071278 7.208285 15.504569 49.657313 1.351204 0.510986 -22.170976 1.620782 -8.026575 -22.795153 0.000000 0.000000 0.000000 17.921108 14.177214 -20.260031 -4.499879 -12.797382 38.614772 1.191234 18.943665 5.585384 -6.039213 -14.466249 45.138933 -0.915480 0.490093 -7.932510 2.020747 0.613352 1.610096 2.708796 0.224165 6.107465 -0.482751 0.871156 -19.341517 -1.766183 1.641381 23.057766 -0.326681 0.407386 10.627168 0.000000 0.000000 0.000000 2.920839 1.844039 -34.774814 21.183530 -32.041943 6.147031 17.017654 -9.098789 -33.328842 0.000000 0.000000 0.000000 -7.125000 0.000000 0.000000 -19.203703 63.497426 8.779115 0.000000 0.000000 0.000000 1.516785 -1.901958 -0.054050 -14.946535 -24.071529 -3.204162 -26.465641 9.233707 -30.114924 0.000000 0.000000 0.000000 7.125000 0.000000 0.000000 2.658944 -2.929292 2.794225
6.501165 18.003136 -4.773748 122.253184 -86.841969 -109.341272 0.000000 0.000000 0.000000 -18.027539 -15.373412 -45.120901 4.450374 12.736350 38.389974 1.092286 0.009039 -19.768353 1.474064 -7.671595 -21.721187 0.000000 0.000000 0.000000 20.770672 11.336226 -16.513194 -3.616375 -11.631554 34.440783 1.388590 20.695339 3.553284 -5.958725 -14.388198 44.815864 0.087648 0.866092 -8.129288 1.809254 1.024629 1.531792 1.977530 0.467028 6.135372 -0.494346 -0.032552 -19.556101 -0.618793 0.123566 21.743803 -0.128724 -0.114034 10.175180 0.000000 0.000000 0.000000 2.167485 4.361932 -32.897627 18.610790 -28.931877 4.841214 16.908973 -8.344365 -34.407556 0.000000 0.000000 0.000000 -7.125000 0.000000 0.000000 -20.356056 64.470135 9.788850 0.000000 0.000000 0.000000 -5.270896 -2.092134 6.133615 -18.540769 -28.844038 -4.807329 -28.065201 -1.812341 -29.142808 0.000000 0.000000 0.000000 7.125000 0.000000 0.000000 1.573602 -2.297185 1.635902
5.471111 17.913561 -5.014144 153.460007 -86.798004 -140.443731 0.000000 0.000000 0.000000 -18.562010 -16.511402 -47.687230 2.775870 10.322998 30.029235 0.835659 -0.001186 -17.280914 1.529061 -7.807165 -22.129880 0.000000 0.000000 0.000000 23.353273 8.993758 -11.564230 -2.895639 -10.524185 30.691469 1.395522 20.500159 5.183857 -5.968382 -14.397659 44.854683 -0.132270 1.029774 -8.173092 1.501781 1.286734 1.693751 1.818571 0.593813 6.324528 -0.061008 0.543715 -19.444033 -0.036432 0.658479 21.198572 0.081761 0.246301 9.958052 0.000000 0.000000 0.000000 1.890866 6.354619 -30.197426 15.425142 -24.735009 3.401870 15.097687 -6.565701 -34.828650 0.000000 0.000000 0.000000 -7.125000 0.000000 0.000000 -22.811771 64.361375 10.968596 0.000000 0.000000 0.000000 -12.700389 -5.561905 8.675839 -18.088744 -28.270669 -4.591252 -25.402531 1.722948 -27.883641 0.000000 0.000000 0.000000 7.125000 0.000000 0.000000 2.923563 -0.344395 2.944847
4.002095 17.685005 -5.190867 182.446038 -82.351991 -169.543317 0.000000 0.000000 0.000000 -17.227033 -15.807173 -45.144371 2.527547 9.887719 28.613888 0.921438 1.996802 -18.958053 0.966210 -6.255432 -17.528189 0.000000 0.000000 0.000000 24.540233 6.639408 -6.541225 -2.834017 -10.421416 30.352474 0.971677 17.531771 10.591492 -6.099577 -14.524132 45.380082 -0.734610 1.446334 -8.601423 0.812087 1.957316 1.730615 1.540193 0.914426 6.590695 0.963615 1.720696 -19.566213 -0.660537 2.152279 20.329555 -0.097163 0.954979 9.691587 0.000000 0.000000 0.000000 2.443284 7.861656 -29.128797 15.741873 -25.169383 3.535512 14.910702 -6.624348 -35.354978 0.000000 0.000000 0.000000 -7.125000 0.000000 0.000000 -23.580628 64.783908 11.588703 0.000000 0.000000 0.000000 -13.370523 -6.020666 10.452875 -19.822088 -30.427239 -5.441108 -24.680131 1.187667 -26.902960 0.000000 0.000000 0.000000 7.125000 0.000000 0.000000 3.210787 0.841017 3.168304
